<?xml version="1.0" encoding="UTF-8"?>
<svg xmlns="http://www.w3.org/2000/svg" viewBox="0 0 168.16 167.83">
  <defs>
    <style>
      .cls-1 { fill: #655b4f; }
      .cls-2 { fill: #50b848; }
      .cls-3 { fill: #fdb913; }
      .cls-4 { fill: #9aca3c; }
    </style>
  </defs>
  <rect width="168.16" height="167.83" fill="#fff"/>
  <g>
    <path class="cls-2" d="M20.4,80.02s3.3-11.16,12.96-2.63c17.46,15.4,53.25,16.63,67.91,13.16,37.98-8.97-13.51,23.8-61.22,15.87-23.9-3.97-19.65-26.4-19.65-26.4Z"/>
    <path class="cls-4" d="M124.79,89.93c15.56-15.3,25.33-4.38,24.43,3.49-.72,6.28-12.19,50.92-61.32,53.63-30.04,1.66-48.48-16.74-56.49-28.23-2.42-3.48-2.81-5.66-2.09-6.82,1.19-1.92,3.31-1.23,5.96-.83,46.94,7.07,74.78-6.77,89.51-21.25Z"/>
    <g>
      <path class="cls-3" d="M60.86,75.47c-.85.7-1.48,1.34-1.62,2.33-.09.64-.25,1.26-.34,1.9-.15,1.02-.28,2.04-.4,3.05,1.3.32,2.64.62,3.99.89-.24-1.3-.48-2.61-.73-3.91-.27-1.39-.58-2.78-.9-4.27Z"/>
      <path class="cls-3" d="M85,83.5c.09-.74.17-1.44.26-2.15.09-.7.2-1.39.19-2.1-.78,1.34-1.03,2.73-.45,4.25Z"/>
      <path class="cls-3" d="M82.93,79.02c-.08-.15-.07-.36-.09-.54-.11-1.42-.21-2.85-.31-4.28-.15-.05-.28-.11-.41-.12-1.24-.07-2.49-.15-3.73-.17-1.9-.03-3.84-.28-5.63.7-.16.09-.56-.03-.71-.18-.99-.99-2.17-.97-3.42-.73-.86.17-3.52,1.16-3.77,1.17-.11,0-.26.35-.3.56-.27,1.25-.39,2.55-.83,3.74-.24.67-.29,1.27-.27,1.93,0,.23.08.46.08.69.02.94.34,1.6,1.31,1.96.31.11.53.26.7.43,6.27,1.04,12.57,1.5,17.14,1.33.17-.66.37-1.32.41-1.99.1-1.5.64-3.04-.16-4.51Z"/>
      <path class="cls-3" d="M85.16,31.26c-20.85,0-38.28,13.72-42.55,32.05-.65,2.81-.93,7.48-.16,10.34,1,3.68,6.77,6.55,13.95,8.55.02-.62.04-1.24-.02-1.85-.26-2.69-.19-5.33.61-7.95.26-.84.29-1.77.3-2.66.02-1.5-.07-3-.1-4.5,0-.24,0-.47,0-.71-.26,1.74-.42,3.49-.56,5.23-.04.5-.12,1.07.06,1.5.35.82.02,1.44-.36,2.06-.11.18-.4.25-.61.37-.11-.21-.32-.43-.32-.64-.02-.85,0-1.71.06-2.56.14-2.23.33-4.45.47-6.68.05-.78-.02-1.57.02-2.36.1-2.1.96-3.8,2.86-4.82.94-.5,1.95-.73,2.88.14.13.12.39.14.59.15,1.57.11,3.13.26,4.7.3,2.82.08,5.64.09,8.46.15,2.31.04,4.61.11,6.92.14,2.1.02,4.2.01,6.3,0,1.3-.01,2.64.26,3.85-.48.13-.08.39-.08.54-.01,1.12.52,1.9-.14,2.42-.9.66-.96,1.51-1.02,2.47-.99.39.01.56.17.59.59.03.32.17.67.36.93.66.94,1.58.99,2.59.67,1.12-.35,1.98.16,2.69.95.11.13.1.57-.02.67-.76.65-1.61,1.1-2.65,1.21-1.4.14-1.61.46-1.48,1.83.03.3.05.6.1.89.14.84.31,1.67.44,2.52.08.53.16,1.27-.43,1.38-.87.17-1.81.05-2.72.02-.13,0-.25-.21-.39-.27-.13-.06-.33-.14-.44-.09-.88.47-1.75.99-2.1,1.99-.32.89-.44,1.86-.86,2.68-.79,1.56-1.69,3.07-2.61,4.56-.52.85-1.29,1.4-2.37,1.25-.56-.07-.82.24-.95.7-.09.33-.14.68-.13,1.02.02.64-.14,1.17-.61,1.63-.15.15-.29.38-.31.59-.06.55-.04,1.1-.07,1.65-.05.73.12,1.32.68,1.86.24.23.44.5.57.79,13.62-1.14,23.13-3.44,32.5-2.47,3.88.4,5.93-.58,7.13-2.75.78-2.78,1.07-3.18,1.21-6.17.03-.58.04-1.17.04-1.76,0-22.52-19.5-40.78-43.55-40.78Z"/>
    </g>
  </g>
  <g>
    <path class="cls-1" d="M12.78,99.06l-10.84,1.66-.19-1.23,4.94-.75-.98-6.39-4.94.76-.19-1.23,10.83-1.66.19,1.23-4.73.72.98,6.39,4.73-.72.19,1.23Z"/>
    <path class="cls-1" d="M12.81,103.67l-3.44,1.09,1.81,5.67-1.12.36-1.81-5.67-3.63,1.16,2,6.29-1.13.36-2.39-7.49,10.44-3.33,2.39,7.49-1.12.36-2-6.29Z"/>
    <path class="cls-1" d="M12.88,122.96l-2.75-5.46-2.72.14-.61-1.21,11.96-.61.61,1.21-7.61,9.24-.61-1.21,1.73-2.1ZM13.7,121.97l4-4.85-6.29.31,2.29,4.54Z"/>
    <path class="cls-1" d="M19.04,134.76l-.96.68-4.17-5.9,8.95-6.32.72,1.02-7.98,5.64,3.45,4.88Z"/>
    <path class="cls-1" d="M29.62,133.85l-2.51-2.7.86-.8,5.86,6.31-.86.8-2.51-2.7-7.17,6.65-.85-.91,7.17-6.65Z"/>
    <path class="cls-1" d="M42.77,143.97l-6.78,8.61-.98-.77,3.09-3.92-5.08-3.99-3.09,3.92-.98-.77,6.78-8.61.98.77-2.96,3.76,5.08,3.99,2.96-3.76.98.77Z"/>
    <path class="cls-1" d="M45.27,153.03l-.71-7.82,1.35.75.5,6.35,5.69-2.92,1.31.73-7,3.54-2.17,3.9-1.14-.63,2.17-3.9Z"/>
    <path class="cls-1" d="M64.66,164.33l-.34,1.13-6.92-2.06,3.12-10.5,1.19.35-2.78,9.37,5.73,1.7Z"/>
    <path class="cls-1" d="M70.08,155.45l1.22.24-2.1,10.75-1.22-.24,2.1-10.75Z"/>
    <path class="cls-1" d="M84.8,157.14l-5.64,10.56-1.35-.1-4-11.29,1.35.1,3.44,9.71,4.84-9.09,1.35.1Z"/>
    <path class="cls-1" d="M87.34,156.88l1.24-.06.48,10.95-1.24.05-.48-10.95Z"/>
    <path class="cls-1" d="M92.12,156.7l1.23-.2,8.16,7.69-1.46-8.8,1.23-.2,1.79,10.81-1.23.2-8.16-7.69,1.46,8.79-1.23.2-1.79-10.81Z"/>
    <path class="cls-1" d="M111,157.58l4.14-1.46,1.42,4.05c-.62,1.3-2.03,2.49-3.46,2.99-2.86,1.01-6.16-.59-7.18-3.49-1.02-2.9.56-6.2,3.42-7.2,1.43-.5,3.27-.47,4.57.17l-.51,1.09c-1.03-.53-2.55-.57-3.68-.18-2.23.78-3.42,3.4-2.61,5.7.81,2.32,3.38,3.61,5.61,2.83.96-.34,1.94-1.11,2.5-1.96l-.87-2.47-2.96,1.04-.39-1.11Z"/>
    <path class="cls-1" d="M128.63,142.49l5.99,9.17-1.04.68-2.73-4.18-5.4,3.53,2.73,4.18-1.04.68-5.99-9.17,1.04-.68,2.62,4,5.4-3.53-2.62-4,1.04-.68Z"/>
    <path class="cls-1" d="M142.57,141.52l-4.48,4.15.88,2.57-1,.92-3.89-11.32,1-.92,10.99,4.76-.99.92-2.5-1.08ZM141.39,141l-5.77-2.5,2.04,5.96,3.73-3.45Z"/>
    <path class="cls-1" d="M140.29,131.63l3.08-3.97c1.08-1.4,2.74-1.69,4-.71.92.71,1.1,1.58.95,2.71,1.28-.6,2.51-.58,3.45.15,1.39,1.07,1.54,2.91.38,4.41l-3.19,4.12-8.66-6.71ZM146.84,130.75c.74-.96.69-2.09-.12-2.71-.81-.63-1.91-.39-2.66.56l-2.12,2.74,2.77,2.15,2.12-2.74ZM151.06,133.77c.83-1.07.75-2.35-.18-3.07-.93-.72-2.19-.49-3.02.59l-2.24,2.89,3.2,2.48,2.24-2.89Z"/>
    <path class="cls-1" d="M146.99,122.36l.65-1.06,9.36,5.71-.65,1.06-9.35-5.71Z"/>
    <path class="cls-1" d="M151.79,116.09l-1.58,3.33-1.07-.5,3.69-7.79,1.07.51-1.58,3.33,8.84,4.19-.53,1.12-8.84-4.19Z"/>
    <path class="cls-1" d="M163.82,104.71l-1.8,5.84,2.06,1.78-.4,1.3-9.05-7.84.4-1.3,11.89-1.4-.4,1.3-2.7.32ZM162.55,104.86l-6.25.73,4.75,4.13,1.5-4.86Z"/>
    <path class="cls-1" d="M158.31,95.5l-.56,3.64-1.17-.18,1.32-8.51,1.17.18-.56,3.64,9.66,1.5-.19,1.23-9.66-1.49Z"/>
  </g>
  <g>
    <path class="cls-1" d="M74.34,13.55h0c-.41-.26-.85-.34-1.33-.23l-7.14,1.61-.72-3.21,4.92-1.11c.48-.11.84-.36,1.1-.77.26-.41.33-.85.23-1.33-.11-.48-.36-.84-.77-1.1-.41-.26-.85-.33-1.33-.23l-4.92,1.11-.72-3.21,7.14-1.61c.48-.11.84-.36,1.1-.78.26-.41.33-.85.23-1.33-.11-.48-.36-.84-.78-1.1-.26-.16-.53-.25-.81-.27-.16,0-.34,0-.51.04l-8.85,2c-.48.11-.84.36-1.1.77-.26.41-.34.85-.23,1.33l3,13.28c.11.48.36.84.77,1.1.41.26.85.34,1.33.23l8.85-2c.48-.11.84-.36,1.1-.77.26-.41.34-.85.23-1.33-.11-.48-.36-.84-.77-1.1Z"/>
    <path class="cls-1" d="M114.7,7.71c.14-.47.1-.91-.13-1.34-.23-.43-.57-.71-1.04-.85-.47-.14-.91-.1-1.33.12-.15.08-.28.17-.39.27l-.11.1-8,8.43-1.98-11.6c-.04-.15-.09-.3-.17-.45-.23-.41-.57-.69-1.04-.84-.47-.14-.91-.1-1.34.13-.43.23-.71.57-.85,1.04-.1.31-.11.61-.04.91l2.52,14.92.02.08c.04.14.09.28.17.42.23.45.57.73,1.04.87.47.14.91.1,1.35-.13.14-.07.27-.16.38-.26l.09-.08,10.38-10.95c.22-.21.38-.46.47-.77Z"/>
    <path class="cls-1" d="M133.63,34.71h0s-5.37-4.97-5.37-4.97l8.05-8.7c.33-.36.49-.77.47-1.26-.02-.49-.2-.89-.56-1.22-.3-.27-.63-.43-1.01-.46-.08,0-.17,0-.25,0-.49.02-.89.2-1.22.56l-9.24,9.99c-.33.36-.49.77-.47,1.26.02.49.2.89.56,1.22l6.66,6.16c.36.33.78.49,1.26.47.49-.02.89-.2,1.22-.56.33-.36.48-.77.47-1.26-.02-.49-.2-.89-.56-1.22Z"/>
    <path class="cls-1" d="M139.27,41.17l9.8-6.67c.41-.28.65-.64.74-1.12.09-.48,0-.91-.27-1.32-.28-.41-.64-.65-1.12-.74-.06-.01-.13-.02-.19-.03-.41-.04-.78.06-1.13.3l-11.25,7.66c-.41.28-.65.64-.74,1.12-.09.48,0,.91.27,1.32l5.11,7.5c.28.4.64.65,1.12.74.48.1.91,0,1.32-.27.41-.28.65-.64.74-1.12h0c.09-.48,0-.91-.27-1.32l-4.12-6.05Z"/>
    <path class="cls-1" d="M150.06,61.6l-2.64-6.82,3.07-1.19,1.82,4.71c.18.46.48.78.93.97.45.2.89.21,1.35.03.46-.18.78-.48.97-.93.2-.45.21-.89.03-1.35l-1.82-4.71,3.07-1.19,2.64,6.82c.18.46.48.78.93.97.45.2.89.21,1.34.03.46-.18.78-.48.97-.93.2-.45.21-.89.03-1.35l-3.27-8.46c-.18-.46-.48-.78-.93-.97-.19-.08-.37-.13-.56-.15-.26-.02-.52.02-.79.12l-12.69,4.91c-.46.18-.78.48-.97.93-.2.45-.21.89-.03,1.34l3.27,8.46c.18.46.48.78.93.97.45.2.89.21,1.34.03.46-.18.78-.48.97-.93h0c.2-.45.21-.89.03-1.34Z"/>
    <path class="cls-1" d="M166.09,74.03c-.12-.09-.27-.16-.41-.22l-.64-.25.04-.06-4.26-2.05,3.53-3.15-.04-.03.53-.42c.13-.09.24-.2.34-.34.28-.38.39-.81.32-1.3-.07-.48-.29-.86-.68-1.16-.39-.29-.82-.4-1.3-.33-.65.09-.97.25-1.11.37l-5.68,5.17-6.04.85c-.49.07-.86.29-1.16.68-.29.39-.4.82-.34,1.3.07.49.29.87.68,1.16.39.29.82.4,1.3.33l6.04-.86,6.92,3.41c.15.06.49.13,1.15.03.49-.07.87-.29,1.16-.68.29-.39.4-.81.33-1.3-.07-.49-.29-.87-.68-1.17Z"/>
    <path class="cls-1" d="M123.76,12.08c0-.15-.02-.3-.07-.46-.13-.48-.4-.83-.82-1.07-.43-.24-.86-.3-1.33-.17-.18.04-.32.1-.44.17l-.11.06-12.57,8.33c-.26.15-.47.36-.63.65-.24.42-.3.86-.17,1.33.13.47.4.82.82,1.07.43.25.86.31,1.34.18.14-.04.29-.1.43-.18l.12-.07,9.7-6.42-.69,11.66v.09c0,.15.03.3.07.47.13.47.39.81.82,1.06.43.24.86.3,1.34.18.47-.13.82-.4,1.06-.82.16-.28.24-.57.24-.87l.9-15.18Z"/>
    <path class="cls-1" d="M37.42,14.01c.28.29.39.62.36,1.04-.03.41-.19.74-.5,1.03l-3.86,3.62,8.53,9.1c.27.29.39.62.35,1.04-.01.3-.11.56-.28.8-.06.08-.13.16-.21.23-.12.11-.24.2-.36.26-.08.05-.17.09-.27.11-.13.04-.28.07-.44.06-.11,0-.2,0-.3-.02-.28-.05-.51-.18-.71-.4l-8.53-9.1-3.89,3.65c-.32.3-.66.44-1.07.44-.42,0-.74-.13-1.01-.42s-.39-.62-.35-1.04c.03-.41.19-.75.5-1.04l9.97-9.35c.31-.29.65-.43,1.07-.43.41,0,.73.13,1.01.42Z"/>
    <path class="cls-1" d="M23.18,26.68c.33.24.5.54.55.95.05.41-.05.77-.3,1.11l-3.12,4.28,10.08,7.35c.32.23.5.54.54.95.04.3,0,.57-.13.84-.05.09-.1.18-.17.27-.09.13-.2.24-.31.33-.07.06-.16.12-.24.16-.12.06-.26.12-.42.14-.1.02-.2.03-.29.04-.28,0-.54-.09-.78-.26l-10.08-7.35-3.14,4.31c-.25.35-.56.55-.97.63-.41.09-.75.01-1.08-.23s-.5-.54-.54-.95c-.05-.41.05-.77.3-1.12l8.06-11.04c.25-.34.56-.55.97-.62.4-.08.75,0,1.07.23Z"/>
    <path class="cls-1" d="M.53,65.56s.03-.09.05-.13c.83-2.17,2.27-3.69,4.39-4.65.03-.01.06-.02.11-.05l.26-.14c.36-.15.7-.16,1.08-.02s.62.38.79.74c.16.36.17.71.03,1.08s-.39.62-.84.82l-.14.04-.16.11c-1.37.62-2.34,1.65-2.87,3.06s-.5,2.84.12,4.23c.62,1.39,1.65,2.36,3.08,2.91s2.85.5,4.23-.12c1.39-.62,2.36-1.65,2.91-3.08.47-1.22.5-2.46.11-3.66l-.06-.17c-.07-.22-.19-.43-.3-.64-.15-.36-.16-.7-.02-1.08s.38-.62.74-.79c.36-.16.71-.17,1.08-.03.18.07.29.15.37.21.22.16.37.35.46.61l.07.16c.95,2.13,1.01,4.22.18,6.4-.83,2.17-2.27,3.69-4.39,4.64-2.13.95-4.22,1.01-6.39.18s-3.69-2.27-4.64-4.39c-.93-2.08-1.01-4.13-.23-6.26Z"/>
    <path class="cls-1" d="M57.83,17.91l-7.04,3.46-5.51-11.19c-.18-.36-.43-.59-.81-.71-.38-.13-.72-.11-1.08.07s-.59.43-.71.81c-.13.38-.11.72.07,1.08l6.13,12.45c.18.36.43.59.81.71.38.13.72.11,1.08-.07l8.3-4.09c.36-.18.59-.43.71-.81.13-.38.11-.72-.07-1.08s-.43-.59-.81-.71-.72-.11-1.08.07Z"/>
    <path class="cls-1" d="M8.44,46.5c-.1.01-.23.04-.35.08-.38.13-.64.36-.81.72s-.19.7-.06,1.07c.05.15.1.26.16.35l.07.1,9.39,12.17c.15.21.33.37.57.48.36.17.7.19,1.08.06.38-.13.63-.36.81-.72s.2-.71.07-1.09c-.04-.11-.1-.23-.17-.33l-.07-.11-7.69-9.99,12.73-.17c.12-.01.25-.04.39-.09.37-.13.62-.36.8-.72s.19-.7.06-1.08c-.13-.38-.36-.63-.72-.81-.24-.12-.47-.16-.71-.15l-15.52.2Z"/>
  </g>
</svg>
